<?xml version="1.0" encoding="UTF-8" standalone="no"?>
<svg
   xmlns:dc="http://purl.org/dc/elements/1.1/"
   xmlns:cc="http://creativecommons.org/ns#"
   xmlns:rdf="http://www.w3.org/1999/02/22-rdf-syntax-ns#"
   xmlns:svg="http://www.w3.org/2000/svg"
   xmlns="http://www.w3.org/2000/svg"
   xmlns:xlink="http://www.w3.org/1999/xlink"
   xmlns:sodipodi="http://sodipodi.sourceforge.net/DTD/sodipodi-0.dtd"
   xmlns:inkscape="http://www.inkscape.org/namespaces/inkscape"
   version="1.1"
   id="svg4398"
   viewBox="0 0 480.00003 183.0462"
   height="2.0338466in"
   width="5.3333335in"
   sodipodi:docname="apache_auth_redmine.svg"
   inkscape:version="1.0.2 (e86c870879, 2021-01-15)">
  <sodipodi:namedview
     pagecolor="#ffffff"
     bordercolor="#666666"
     borderopacity="1"
     objecttolerance="10"
     gridtolerance="10"
     guidetolerance="10"
     inkscape:pageopacity="0"
     inkscape:pageshadow="2"
     inkscape:window-width="3840"
     inkscape:window-height="2139"
     id="namedview1920"
     showgrid="false"
     fit-margin-top="0"
     fit-margin-left="0"
     fit-margin-right="0"
     fit-margin-bottom="0"
     inkscape:zoom="2.9731626"
     inkscape:cx="203.7892"
     inkscape:cy="114.54756"
     inkscape:window-x="1920"
     inkscape:window-y="0"
     inkscape:window-maximized="1"
     inkscape:current-layer="svg4398"
     inkscape:document-rotation="0" />
  <defs
     id="defs4400">
    <linearGradient
       gradientTransform="matrix(0.4345,-0.9318,-0.9318,-0.4345,6223.4761,-5052.7427)"
       y2="2496.6895"
       x2="-6636.2373"
       y1="2774.2998"
       x1="-6873.6479"
       gradientUnits="userSpaceOnUse"
       id="SVGID_1_">
      <stop
         id="stop3172"
         style="stop-color:#F59723"
         offset="0" />
      <stop
         id="stop3174"
         style="stop-color:#F69822"
         offset="0.3123" />
      <stop
         id="stop3176"
         style="stop-color:#E87726"
         offset="0.8383" />
    </linearGradient>
    <linearGradient
       gradientTransform="matrix(0.4345,-0.9318,-0.9318,-0.4345,6223.4761,-5052.7427)"
       y2="2804.9607"
       x2="-6936.9253"
       y1="2804.9607"
       x1="-8630.7197"
       gradientUnits="userSpaceOnUse"
       id="SVGID_2_">
      <stop
         id="stop3197"
         style="stop-color:#9C2063"
         offset="0.3233" />
      <stop
         id="stop3199"
         style="stop-color:#C82037"
         offset="0.6302" />
      <stop
         id="stop3201"
         style="stop-color:#CC2135"
         offset="0.7514" />
      <stop
         id="stop3203"
         style="stop-color:#E87726"
         offset="1" />
    </linearGradient>
    <linearGradient
       gradientTransform="matrix(0.4345,-0.9318,-0.9318,-0.4345,6223.4761,-5052.7427)"
       y2="2635.2839"
       x2="-7416.9194"
       y1="2635.2839"
       x1="-8426.2559"
       gradientUnits="userSpaceOnUse"
       id="SVGID_3_">
      <stop
         id="stop3208"
         style="stop-color:#282661"
         offset="0" />
      <stop
         id="stop3210"
         style="stop-color:#662E8C"
         offset="9.548389e-02" />
      <stop
         id="stop3212"
         style="stop-color:#9E2064"
         offset="0.7882" />
      <stop
         id="stop3214"
         style="stop-color:#CC2032"
         offset="0.9487" />
    </linearGradient>
    <linearGradient
       gradientTransform="matrix(0.4345,-0.9318,-0.9318,-0.4345,6223.4761,-5052.7427)"
       y2="2820.8604"
       x2="-6841.793"
       y1="2820.8604"
       x1="-8535.5879"
       gradientUnits="userSpaceOnUse"
       id="SVGID_4_">
      <stop
         id="stop3219"
         style="stop-color:#9C2063"
         offset="0.3233" />
      <stop
         id="stop3221"
         style="stop-color:#C82037"
         offset="0.6302" />
      <stop
         id="stop3223"
         style="stop-color:#CC2135"
         offset="0.7514" />
      <stop
         id="stop3225"
         style="stop-color:#E87726"
         offset="1" />
    </linearGradient>
    <linearGradient
       gradientTransform="matrix(0.4345,-0.9318,-0.9318,-0.4345,6223.4761,-5052.7427)"
       y2="2797.8789"
       x2="-7521.9175"
       y1="2797.8789"
       x1="-8412.0576"
       gradientUnits="userSpaceOnUse"
       id="SVGID_5_">
      <stop
         id="stop3230"
         style="stop-color:#282661"
         offset="0" />
      <stop
         id="stop3232"
         style="stop-color:#662E8C"
         offset="9.548389e-02" />
      <stop
         id="stop3234"
         style="stop-color:#9E2064"
         offset="0.7882" />
      <stop
         id="stop3236"
         style="stop-color:#CC2032"
         offset="0.9487" />
    </linearGradient>
    <linearGradient
       gradientTransform="matrix(0.4345,-0.9318,-0.9318,-0.4345,6223.4761,-5052.7427)"
       y2="2645.4897"
       x2="-6841.793"
       y1="2645.4897"
       x1="-8535.5879"
       gradientUnits="userSpaceOnUse"
       id="SVGID_6_">
      <stop
         id="stop3241"
         style="stop-color:#9C2063"
         offset="0.3233" />
      <stop
         id="stop3243"
         style="stop-color:#C82037"
         offset="0.6302" />
      <stop
         id="stop3245"
         style="stop-color:#CC2135"
         offset="0.7514" />
      <stop
         id="stop3247"
         style="stop-color:#E87726"
         offset="1" />
    </linearGradient>
    <linearGradient
       gradientTransform="matrix(0.4345,-0.9318,-0.9318,-0.4345,6223.4761,-5052.7427)"
       y2="2654.2649"
       x2="-6946.8647"
       y1="2654.2649"
       x1="-8640.6592"
       gradientUnits="userSpaceOnUse"
       id="SVGID_7_">
      <stop
         id="stop3252"
         style="stop-color:#9C2063"
         offset="0.3233" />
      <stop
         id="stop3254"
         style="stop-color:#C82037"
         offset="0.6302" />
      <stop
         id="stop3256"
         style="stop-color:#CC2135"
         offset="0.7514" />
      <stop
         id="stop3258"
         style="stop-color:#E87726"
         offset="1" />
    </linearGradient>
    <linearGradient
       gradientTransform="matrix(0.4345,-0.9318,-0.9318,-0.4345,6223.4761,-5052.7427)"
       y2="2593.446"
       x2="-6841.7925"
       y1="2593.446"
       x1="-8535.5889"
       gradientUnits="userSpaceOnUse"
       id="SVGID_8_">
      <stop
         id="stop3267"
         style="stop-color:#9C2063"
         offset="0.3233" />
      <stop
         id="stop3269"
         style="stop-color:#C82037"
         offset="0.6302" />
      <stop
         id="stop3271"
         style="stop-color:#CC2135"
         offset="0.7514" />
      <stop
         id="stop3273"
         style="stop-color:#E87726"
         offset="1" />
    </linearGradient>
    <linearGradient
       gradientTransform="matrix(0.4345,-0.9318,-0.9318,-0.4345,6223.4761,-5052.7427)"
       y2="2599.3242"
       x2="-6841.7925"
       y1="2599.3242"
       x1="-8535.5889"
       gradientUnits="userSpaceOnUse"
       id="SVGID_9_">
      <stop
         id="stop3282"
         style="stop-color:#9C2063"
         offset="0.3233" />
      <stop
         id="stop3284"
         style="stop-color:#C82037"
         offset="0.6302" />
      <stop
         id="stop3286"
         style="stop-color:#CC2135"
         offset="0.7514" />
      <stop
         id="stop3288"
         style="stop-color:#E87726"
         offset="1" />
    </linearGradient>
    <linearGradient
       gradientTransform="matrix(0.4345,-0.9318,-0.9318,-0.4345,6223.4761,-5052.7427)"
       y2="2600.5515"
       x2="-7209.6543"
       y1="2600.5515"
       x1="-7584.0386"
       gradientUnits="userSpaceOnUse"
       id="SVGID_10_">
      <stop
         id="stop3297"
         style="stop-color:#9C2063"
         offset="0.3233" />
      <stop
         id="stop3299"
         style="stop-color:#C82037"
         offset="0.6302" />
      <stop
         id="stop3301"
         style="stop-color:#CC2135"
         offset="0.7514" />
      <stop
         id="stop3303"
         style="stop-color:#E87726"
         offset="1" />
    </linearGradient>
    <linearGradient
       inkscape:collect="always"
       xlink:href="#SVGID_1_"
       id="linearGradient2110"
       gradientUnits="userSpaceOnUse"
       gradientTransform="matrix(0.4345,-0.9318,-0.9318,-0.4345,6223.4761,-5052.7427)"
       x1="-6873.6479"
       y1="2774.2998"
       x2="-6636.2373"
       y2="2496.6895" />
    <linearGradient
       inkscape:collect="always"
       xlink:href="#SVGID_2_"
       id="linearGradient2112"
       gradientUnits="userSpaceOnUse"
       gradientTransform="matrix(0.4345,-0.9318,-0.9318,-0.4345,6223.4761,-5052.7427)"
       x1="-8630.7197"
       y1="2804.9607"
       x2="-6936.9253"
       y2="2804.9607" />
    <linearGradient
       inkscape:collect="always"
       xlink:href="#SVGID_3_"
       id="linearGradient2114"
       gradientUnits="userSpaceOnUse"
       gradientTransform="matrix(0.4345,-0.9318,-0.9318,-0.4345,6223.4761,-5052.7427)"
       x1="-8426.2559"
       y1="2635.2839"
       x2="-7416.9194"
       y2="2635.2839" />
    <linearGradient
       inkscape:collect="always"
       xlink:href="#SVGID_4_"
       id="linearGradient2116"
       gradientUnits="userSpaceOnUse"
       gradientTransform="matrix(0.4345,-0.9318,-0.9318,-0.4345,6223.4761,-5052.7427)"
       x1="-8535.5879"
       y1="2820.8604"
       x2="-6841.793"
       y2="2820.8604" />
    <linearGradient
       inkscape:collect="always"
       xlink:href="#SVGID_5_"
       id="linearGradient2118"
       gradientUnits="userSpaceOnUse"
       gradientTransform="matrix(0.4345,-0.9318,-0.9318,-0.4345,6223.4761,-5052.7427)"
       x1="-8412.0576"
       y1="2797.8789"
       x2="-7521.9175"
       y2="2797.8789" />
    <linearGradient
       inkscape:collect="always"
       xlink:href="#SVGID_6_"
       id="linearGradient2120"
       gradientUnits="userSpaceOnUse"
       gradientTransform="matrix(0.4345,-0.9318,-0.9318,-0.4345,6223.4761,-5052.7427)"
       x1="-8535.5879"
       y1="2645.4897"
       x2="-6841.793"
       y2="2645.4897" />
    <linearGradient
       inkscape:collect="always"
       xlink:href="#SVGID_7_"
       id="linearGradient2122"
       gradientUnits="userSpaceOnUse"
       gradientTransform="matrix(0.4345,-0.9318,-0.9318,-0.4345,6223.4761,-5052.7427)"
       x1="-8640.6592"
       y1="2654.2649"
       x2="-6946.8647"
       y2="2654.2649" />
    <linearGradient
       inkscape:collect="always"
       xlink:href="#SVGID_8_"
       id="linearGradient2124"
       gradientUnits="userSpaceOnUse"
       gradientTransform="matrix(0.4345,-0.9318,-0.9318,-0.4345,6223.4761,-5052.7427)"
       x1="-8535.5889"
       y1="2593.446"
       x2="-6841.7925"
       y2="2593.446" />
    <linearGradient
       inkscape:collect="always"
       xlink:href="#SVGID_9_"
       id="linearGradient2126"
       gradientUnits="userSpaceOnUse"
       gradientTransform="matrix(0.4345,-0.9318,-0.9318,-0.4345,6223.4761,-5052.7427)"
       x1="-8535.5889"
       y1="2599.3242"
       x2="-6841.7925"
       y2="2599.3242" />
    <linearGradient
       inkscape:collect="always"
       xlink:href="#SVGID_10_"
       id="linearGradient2128"
       gradientUnits="userSpaceOnUse"
       gradientTransform="matrix(0.4345,-0.9318,-0.9318,-0.4345,6223.4761,-5052.7427)"
       x1="-7584.0386"
       y1="2600.5515"
       x2="-7209.6543"
       y2="2600.5515" />
    <filter
       inkscape:menu-tooltip="In and out glow with a possible offset and colorizable flood"
       inkscape:menu="Shadows and Glows"
       inkscape:label="Cutout Glow"
       style="color-interpolation-filters:sRGB;"
       id="filter2324"
       x="-0.07447679"
       width="1.1489536"
       y="-0.27028411"
       height="1.5405682">
      <feOffset
         dy="3"
         dx="3"
         id="feOffset2314" />
      <feGaussianBlur
         stdDeviation="3"
         result="blur"
         id="feGaussianBlur2316" />
      <feFlood
         flood-color="rgb(0,0,0)"
         flood-opacity="1"
         result="flood"
         id="feFlood2318" />
      <feComposite
         in="flood"
         in2="SourceGraphic"
         operator="in"
         result="composite"
         id="feComposite2320" />
      <feBlend
         in="blur"
         in2="composite"
         mode="normal"
         id="feBlend2322" />
    </filter>
  </defs>
  <metadata
     id="metadata4403">
    <rdf:RDF>
      <cc:Work
         rdf:about="">
        <dc:format>image/svg+xml</dc:format>
        <dc:type
           rdf:resource="http://purl.org/dc/dcmitype/StillImage" />
        <dc:title></dc:title>
      </cc:Work>
    </rdf:RDF>
  </metadata>
  <g
     transform="matrix(0.05030901,0,0,0.05030901,13.382085,42.176642)"
     id="g3169">
    <linearGradient
       gradientTransform="matrix(0.4345,-0.9318,-0.9318,-0.4345,6223.4761,-5052.7427)"
       y2="2496.6895"
       x2="-6636.2373"
       y1="2774.2998"
       x1="-6873.6479"
       gradientUnits="userSpaceOnUse"
       id="linearGradient4274">
      <stop
         id="stop4276"
         style="stop-color:#F59723"
         offset="0" />
      <stop
         id="stop4278"
         style="stop-color:#F69822"
         offset="0.3123" />
      <stop
         id="stop4280"
         style="stop-color:#E87726"
         offset="0.8383" />
    </linearGradient>
    <path
       style="fill:url(#linearGradient2110)"
       id="path3178"
       d="m 736.1,8.1 c -27.1,16 -72.2,61.3 -125.8,127 l 49.3,93.2 C 694.3,178.8 729.5,134.1 765,96 c 2.8,-3 4.1,-4.4 4.1,-4.4 -1.3,1.4 -2.8,3 -4.1,4.4 -11.5,12.6 -46.4,53.4 -99,134.2 50.7,-2.5 128.5,-12.9 192,-23.7 19,-105.9 -18.5,-154.3 -18.5,-154.3 0,0 -47.6,-77 -103.4,-44.1 z"
       inkscape:connector-curvature="0" />
    <path
       style="fill:none"
       id="path3180"
       d="m 652.5,539.9 c 0.3,-0.1 0.7,-0.1 1.1,-0.2 l -7.1,0.8 c -0.4,0.2 -0.8,0.4 -1.2,0.6 2.3,-0.5 4.8,-0.9 7.2,-1.2 z"
       inkscape:connector-curvature="0" />
    <path
       style="fill:none"
       id="path3182"
       d="m 602,706.9 c -4,0.9 -8.1,1.6 -12.3,2.3 4.2,-0.7 8.3,-1.5 12.3,-2.3 z"
       inkscape:connector-curvature="0" />
    <path
       style="fill:none"
       id="path3184"
       d="m 259.4,1081.4 c 0.5,-1.3 1,-2.8 1.5,-4.1 10.9,-28.7 21.7,-56.6 32.3,-83.8 11.9,-30.5 23.7,-60 35.5,-88.6 12.3,-30.1 24.5,-59.3 36.4,-87.5 12.5,-29.5 24.9,-58 37.1,-85.4 9.9,-22.3 19.6,-43.9 29.2,-64.8 3.2,-7 6.4,-13.9 9.6,-20.7 6.3,-13.6 12.5,-26.8 18.7,-39.8 5.7,-11.9 11.3,-23.6 17,-35.2 1.9,-3.8 3.7,-7.6 5.6,-11.4 0.3,-0.6 0.6,-1.2 0.9,-1.9 l -6.1,0.6 -4.8,-9.5 c -0.5,0.9 -0.9,1.9 -1.4,2.8 -8.6,17.3 -17.3,34.6 -25.8,52.1 -4.9,10.2 -9.8,20.4 -14.7,30.5 -13.5,28.3 -26.7,57 -39.8,85.6 -13.2,29.1 -26.1,58.3 -38.9,87.6 -12.4,28.8 -24.7,57.6 -36.6,86.3 -11.9,28.7 -23.6,57.3 -35,85.6 -11.9,29.6 -23.4,59 -34.6,88 -2.6,6.6 -5,13.1 -7.6,19.6 -9,23.4 -17.8,46.6 -26.3,69.4 l 7.6,15 6.8,-0.7 c 0.2,-0.7 0.5,-1.3 0.7,-2.1 11.1,-29.8 22,-59.1 32.7,-87.6 z"
       inkscape:connector-curvature="0" />
    <path
       style="fill:none"
       id="path3186"
       d="M 586.6,709.6 Z"
       inkscape:connector-curvature="0" />
    <path
       style="fill:#bd202e"
       id="path3188"
       d="m 570.2,791 c -6.3,1.1 -12.7,2.3 -19.4,3.4 0,0 -0.1,0 -0.1,0.1 3.4,-0.5 6.7,-1 10,-1.5 3.1,-0.7 6.3,-1.3 9.5,-2 z"
       inkscape:connector-curvature="0" />
    <path
       style="opacity:0.35;fill:#bd202e"
       id="path3190"
       d="m 570.2,791 c -6.3,1.1 -12.7,2.3 -19.4,3.4 0,0 -0.1,0 -0.1,0.1 3.4,-0.5 6.7,-1 10,-1.5 3.1,-0.7 6.3,-1.3 9.5,-2 z"
       enable-background="new    "
       inkscape:connector-curvature="0" />
    <path
       style="fill:#bd202e"
       id="path3192"
       d="m 586.7,709.5 c 0,0 0,0.1 0,0 -0.1,0 -0.1,0 -0.1,0.1 1,-0.1 2.1,-0.3 3.1,-0.5 4.2,-0.6 8.3,-1.3 12.3,-2.3 -5,0.9 -10,1.8 -15.3,2.7 z"
       inkscape:connector-curvature="0" />
    <path
       style="opacity:0.35;fill:#bd202e"
       id="path3194"
       d="m 586.7,709.5 c 0,0 0,0.1 0,0 -0.1,0 -0.1,0 -0.1,0.1 1,-0.1 2.1,-0.3 3.1,-0.5 4.2,-0.6 8.3,-1.3 12.3,-2.3 -5,0.9 -10,1.8 -15.3,2.7 z"
       enable-background="new    "
       inkscape:connector-curvature="0" />
    <linearGradient
       gradientTransform="matrix(0.4345,-0.9318,-0.9318,-0.4345,6223.4761,-5052.7427)"
       y2="2804.9607"
       x2="-6936.9253"
       y1="2804.9607"
       x1="-8630.7197"
       gradientUnits="userSpaceOnUse"
       id="linearGradient4291">
      <stop
         id="stop4293"
         style="stop-color:#9C2063"
         offset="0.3233" />
      <stop
         id="stop4295"
         style="stop-color:#C82037"
         offset="0.6302" />
      <stop
         id="stop4297"
         style="stop-color:#CC2135"
         offset="0.7514" />
      <stop
         id="stop4299"
         style="stop-color:#E87726"
         offset="1" />
    </linearGradient>
    <path
       style="fill:url(#linearGradient2112)"
       id="path3205"
       d="m 514,469.2 c 15,-28.1 30.2,-55.5 45.5,-82.1 15.9,-27.8 32.1,-54.6 48.4,-80.6 0.9,-1.5 2,-3.1 2.9,-4.6 16.1,-25.5 32.4,-50.1 48.7,-73.5 l -49.3,-93.2 c -3.7,4.5 -7.4,9.1 -11.2,13.9 -14.3,17.8 -29,36.8 -44.2,57.1 -17.1,22.8 -34.6,47.2 -52.5,72.8 -16.4,23.6 -33.2,48.3 -50,74 -14.3,21.8 -28.5,44.2 -42.7,67.2 -0.5,0.8 -1,1.7 -1.5,2.6 l 64.3,127 C 486,522.3 500,495.4 514,469.2 Z"
       inkscape:connector-curvature="0" />
    <linearGradient
       gradientTransform="matrix(0.4345,-0.9318,-0.9318,-0.4345,6223.4761,-5052.7427)"
       y2="2635.2839"
       x2="-7416.9194"
       y1="2635.2839"
       x1="-8426.2559"
       gradientUnits="userSpaceOnUse"
       id="linearGradient4302">
      <stop
         id="stop4304"
         style="stop-color:#282661"
         offset="0" />
      <stop
         id="stop4306"
         style="stop-color:#662E8C"
         offset="9.548389e-02" />
      <stop
         id="stop4308"
         style="stop-color:#9E2064"
         offset="0.7882" />
      <stop
         id="stop4310"
         style="stop-color:#CC2032"
         offset="0.9487" />
    </linearGradient>
    <path
       style="fill:url(#linearGradient2114)"
       id="path3216"
       d="m 221.2,1184.4 c -8.5,23.3 -17.1,47.2 -25.6,71.5 -0.1,0.3 -0.2,0.7 -0.4,1 -1.2,3.4 -2.5,6.9 -3.6,10.3 -5.8,16.4 -10.8,31.2 -22.3,64.7 18.9,8.6 34.1,31.4 48.5,57.2 -1.5,-26.7 -12.5,-51.8 -33.6,-71.2 93.3,4.2 173.7,-19.4 215.3,-87.6 3.7,-6.1 7.1,-12.4 10.2,-19.3 -18.9,24 -42.4,34.1 -86.5,31.7 -0.1,0 -0.2,0.1 -0.3,0.1 0.1,0 0.2,-0.1 0.3,-0.1 65,-29.1 97.5,-57 126.4,-103.2 6.8,-11 13.5,-22.9 20.3,-36.2 -56.8,58.3 -122.5,74.9 -191.8,62.3 l -52,5.7 c -1.7,4.4 -3.2,8.7 -4.9,13.1 z"
       inkscape:connector-curvature="0" />
    <linearGradient
       gradientTransform="matrix(0.4345,-0.9318,-0.9318,-0.4345,6223.4761,-5052.7427)"
       y2="2820.8604"
       x2="-6841.793"
       y1="2820.8604"
       x1="-8535.5879"
       gradientUnits="userSpaceOnUse"
       id="linearGradient4313">
      <stop
         id="stop4315"
         style="stop-color:#9C2063"
         offset="0.3233" />
      <stop
         id="stop4317"
         style="stop-color:#C82037"
         offset="0.6302" />
      <stop
         id="stop4319"
         style="stop-color:#CC2135"
         offset="0.7514" />
      <stop
         id="stop4321"
         style="stop-color:#E87726"
         offset="1" />
    </linearGradient>
    <path
       style="fill:url(#linearGradient2116)"
       id="path3227"
       d="m 245.5,1068.1 c 11.2,-29 22.8,-58.4 34.6,-88 11.4,-28.4 23,-57 35,-85.6 12,-28.6 24.2,-57.5 36.6,-86.3 12.6,-29.3 25.6,-58.5 38.9,-87.6 13.1,-28.8 26.3,-57.4 39.8,-85.6 4.8,-10.2 9.8,-20.4 14.7,-30.5 8.5,-17.5 17.1,-34.9 25.8,-52.1 0.5,-0.9 0.9,-1.9 1.4,-2.8 L 408,422.6 c -1,1.7 -2.1,3.5 -3.2,5.1 -15,24.5 -29.9,49.5 -44.5,75 -14.8,25.8 -29.3,52.1 -43.5,78.8 -11.9,22.5 -23.6,45.1 -35.1,68.1 -2.3,4.6 -4.5,9.3 -6.8,13.9 -14,28.9 -26.6,56.6 -38.1,83.5 -13,30.3 -24.4,59.3 -34.3,86.8 -6.6,18.1 -12.5,35.5 -18,52.3 -4.5,14.3 -8.7,28.7 -12.9,43 -9.6,33.6 -17.9,67.2 -24.7,100.6 l 64.6,127.5 c 8.5,-22.8 17.3,-46 26.3,-69.4 2.7,-6.7 5.1,-13.3 7.7,-19.7 z"
       inkscape:connector-curvature="0" />
    <linearGradient
       gradientTransform="matrix(0.4345,-0.9318,-0.9318,-0.4345,6223.4761,-5052.7427)"
       y2="2797.8789"
       x2="-7521.9175"
       y1="2797.8789"
       x1="-8412.0576"
       gradientUnits="userSpaceOnUse"
       id="linearGradient4324">
      <stop
         id="stop4326"
         style="stop-color:#282661"
         offset="0" />
      <stop
         id="stop4328"
         style="stop-color:#662E8C"
         offset="9.548389e-02" />
      <stop
         id="stop4330"
         style="stop-color:#9E2064"
         offset="0.7882" />
      <stop
         id="stop4332"
         style="stop-color:#CC2032"
         offset="0.9487" />
    </linearGradient>
    <path
       style="fill:url(#linearGradient2118)"
       id="path3238"
       d="m 146.2,1034 c -8.1,40.8 -13.9,81.4 -16.8,121.8 -0.1,1.4 -0.2,2.8 -0.3,4.2 -20.2,-32.3 -74.1,-63.8 -74,-63.5 38.7,56 68,111.6 72.3,166.2 -20.7,4.2 -49,-1.9 -81.7,-13.9 34.1,31.4 59.7,40 69.8,42.4 -31.4,2 -64,23.5 -96.9,48.3 48.1,-19.6 87,-27.4 114.8,-21.1 -44.2,125 -88.4,263 -132.7,409.6 13.6,-4 21.7,-13.2 26.2,-25.5 7.9,-26.5 60.2,-200.7 142.3,-429.4 2.4,-6.5 4.7,-13.1 7.1,-19.6 0.6,-1.9 1.3,-3.7 2,-5.4 8.6,-24 17.7,-48.5 26.9,-73.5 2.1,-5.7 4.2,-11.4 6.4,-17.1 0,-0.1 0.1,-0.2 0.1,-0.3 L 147,1029.7 c -0.2,1.3 -0.5,2.8 -0.8,4.3 z"
       inkscape:connector-curvature="0" />
    <linearGradient
       gradientTransform="matrix(0.4345,-0.9318,-0.9318,-0.4345,6223.4761,-5052.7427)"
       y2="2645.4897"
       x2="-6841.793"
       y1="2645.4897"
       x1="-8535.5879"
       gradientUnits="userSpaceOnUse"
       id="linearGradient4335">
      <stop
         id="stop4337"
         style="stop-color:#9C2063"
         offset="0.3233" />
      <stop
         id="stop4339"
         style="stop-color:#C82037"
         offset="0.6302" />
      <stop
         id="stop4341"
         style="stop-color:#CC2135"
         offset="0.7514" />
      <stop
         id="stop4343"
         style="stop-color:#E87726"
         offset="1" />
    </linearGradient>
    <path
       style="fill:url(#linearGradient2120)"
       id="path3249"
       d="m 482.3,560.2 c -1.9,3.8 -3.7,7.6 -5.6,11.4 -5.6,11.5 -11.2,23.2 -17,35.2 -6.2,13 -12.4,26.2 -18.7,39.8 -3.2,6.8 -6.4,13.7 -9.6,20.7 -9.6,20.9 -19.3,42.5 -29.2,64.8 -12.1,27.3 -24.6,55.8 -37.1,85.4 -11.9,28.2 -24.2,57.3 -36.4,87.5 -11.7,28.6 -23.5,58.2 -35.5,88.6 -10.7,27.1 -21.5,55.1 -32.3,83.8 -0.5,1.3 -1,2.8 -1.5,4.1 -10.8,28.5 -21.7,57.8 -32.6,87.8 -0.2,0.7 -0.5,1.3 -0.7,2.1 l 52,-5.7 c -1,-0.2 -2.1,-0.3 -3.1,-0.5 62.1,-7.7 144.8,-54.2 198.1,-111.5 24.6,-26.4 46.9,-57.6 67.5,-94.1 15.3,-27.1 29.8,-57.3 43.6,-90.6 12,-29.1 23.5,-60.7 34.6,-94.8 -14.3,7.5 -30.6,13.1 -48.6,16.9 -3.2,0.7 -6.4,1.3 -9.7,1.9 -3.3,0.6 -6.6,1.1 -10,1.5 v 0 0 c 0,0 0.1,0 0.1,-0.1 58,-22.3 94.5,-65.3 121,-118 -15.2,10.4 -40,24 -69.7,30.5 -4,0.9 -8.1,1.6 -12.3,2.3 -1,0.1 -2.1,0.3 -3.1,0.5 v 0 0 h 0.1 c 0,0 0,0 0.1,0 v 0 c 20.2,-8.4 37.1,-17.9 51.8,-29 3.2,-2.4 6.3,-4.8 9.1,-7.4 4.5,-3.9 8.7,-8 12.9,-12.2 2.6,-2.8 5.1,-5.6 7.6,-8.5 5.8,-6.9 11.2,-14.3 16.2,-22.3 1.5,-2.5 3.1,-4.9 4.5,-7.5 2,-3.7 3.8,-7.4 5.6,-10.9 8.1,-16.2 14.6,-30.8 19.7,-43.5 2.6,-6.4 4.8,-12.2 6.8,-17.8 0.8,-2.2 1.5,-4.3 2.2,-6.4 2.1,-6.1 3.7,-11.5 5,-16.3 2,-7.2 3.2,-12.9 3.8,-17 v 0 0 c -2,1.5 -4.2,3.1 -6.8,4.6 -17.5,10.5 -47.5,19.9 -71.7,24.4 l 47.7,-5.2 -47.7,5.2 c -0.3,0.1 -0.7,0.1 -1.1,0.2 -2.5,0.4 -4.8,0.8 -7.3,1.1 0.4,-0.2 0.8,-0.4 1.2,-0.6 l -163.3,17.9 c 0,0.4 -0.3,1.1 -0.6,1.7 z"
       inkscape:connector-curvature="0" />
    <linearGradient
       gradientTransform="matrix(0.4345,-0.9318,-0.9318,-0.4345,6223.4761,-5052.7427)"
       y2="2654.2649"
       x2="-6946.8647"
       y1="2654.2649"
       x1="-8640.6592"
       gradientUnits="userSpaceOnUse"
       id="linearGradient4346">
      <stop
         id="stop4348"
         style="stop-color:#9C2063"
         offset="0.3233" />
      <stop
         id="stop4350"
         style="stop-color:#C82037"
         offset="0.6302" />
      <stop
         id="stop4352"
         style="stop-color:#CC2135"
         offset="0.7514" />
      <stop
         id="stop4354"
         style="stop-color:#E87726"
         offset="1" />
    </linearGradient>
    <path
       style="fill:url(#linearGradient2122)"
       id="path3260"
       d="m 666.1,230.2 c -14.5,22.3 -30.3,47.6 -47.5,76.3 -0.9,1.4 -1.9,3.1 -2.7,4.5 -14.7,24.8 -30.3,52 -46.9,81.9 -14.2,25.8 -29,53.4 -44.4,83.1 -13.4,25.9 -27.2,53.4 -41.5,82.5 l 163.3,-17.9 c 47.6,-21.9 68.8,-41.6 89.4,-70.3 5.4,-7.9 11,-16.1 16.4,-24.7 16.8,-26.2 33.2,-55 47.9,-83.7 14.2,-27.7 26.7,-55.1 36.3,-79.9 6.1,-15.7 11,-30.3 14.4,-43.2 3,-11.3 5.3,-22.1 7.1,-32.4 -63.3,10.9 -141.2,21.3 -191.8,23.8 z"
       inkscape:connector-curvature="0" />
    <path
       style="fill:#bd202e"
       id="path3262"
       d="m 560.5,792.8 c -3.3,0.6 -6.6,1.1 -10,1.5 v 0 c 3.4,-0.3 6.8,-0.9 10,-1.5 z"
       inkscape:connector-curvature="0" />
    <path
       style="opacity:0.35;fill:#bd202e"
       id="path3264"
       d="m 560.5,792.8 c -3.3,0.6 -6.6,1.1 -10,1.5 v 0 c 3.4,-0.3 6.8,-0.9 10,-1.5 z"
       enable-background="new    "
       inkscape:connector-curvature="0" />
    <linearGradient
       gradientTransform="matrix(0.4345,-0.9318,-0.9318,-0.4345,6223.4761,-5052.7427)"
       y2="2593.446"
       x2="-6841.7925"
       y1="2593.446"
       x1="-8535.5889"
       gradientUnits="userSpaceOnUse"
       id="linearGradient4359">
      <stop
         id="stop4361"
         style="stop-color:#9C2063"
         offset="0.3233" />
      <stop
         id="stop4363"
         style="stop-color:#C82037"
         offset="0.6302" />
      <stop
         id="stop4365"
         style="stop-color:#CC2135"
         offset="0.7514" />
      <stop
         id="stop4367"
         style="stop-color:#E87726"
         offset="1" />
    </linearGradient>
    <path
       style="fill:url(#linearGradient2124)"
       id="path3275"
       d="m 560.5,792.8 c -3.3,0.6 -6.6,1.1 -10,1.5 v 0 c 3.4,-0.3 6.8,-0.9 10,-1.5 z"
       inkscape:connector-curvature="0" />
    <path
       style="fill:#bd202e"
       id="path3277"
       d="m 586.6,709.6 c 1,-0.1 2.1,-0.3 3.1,-0.5 -1,0.1 -2,0.4 -3.1,0.5 z"
       inkscape:connector-curvature="0" />
    <path
       style="opacity:0.35;fill:#bd202e"
       id="path3279"
       d="m 586.6,709.6 c 1,-0.1 2.1,-0.3 3.1,-0.5 -1,0.1 -2,0.4 -3.1,0.5 z"
       enable-background="new    "
       inkscape:connector-curvature="0" />
    <linearGradient
       gradientTransform="matrix(0.4345,-0.9318,-0.9318,-0.4345,6223.4761,-5052.7427)"
       y2="2599.3242"
       x2="-6841.7925"
       y1="2599.3242"
       x1="-8535.5889"
       gradientUnits="userSpaceOnUse"
       id="linearGradient4372">
      <stop
         id="stop4374"
         style="stop-color:#9C2063"
         offset="0.3233" />
      <stop
         id="stop4376"
         style="stop-color:#C82037"
         offset="0.6302" />
      <stop
         id="stop4378"
         style="stop-color:#CC2135"
         offset="0.7514" />
      <stop
         id="stop4380"
         style="stop-color:#E87726"
         offset="1" />
    </linearGradient>
    <path
       style="fill:url(#linearGradient2126)"
       id="path3290"
       d="m 586.6,709.6 c 1,-0.1 2.1,-0.3 3.1,-0.5 -1,0.1 -2,0.4 -3.1,0.5 z"
       inkscape:connector-curvature="0" />
    <path
       style="fill:#bd202e"
       id="path3292"
       d="m 586.6,709.6 c 0.1,0 0.1,-0.1 0,0 v 0 0 0 c 0.1,-0.1 0.1,0 0,0 z"
       inkscape:connector-curvature="0" />
    <path
       style="opacity:0.35;fill:#bd202e"
       id="path3294"
       d="m 586.6,709.6 c 0.1,0 0.1,-0.1 0,0 v 0 0 0 c 0.1,-0.1 0.1,0 0,0 z"
       enable-background="new    "
       inkscape:connector-curvature="0" />
    <linearGradient
       gradientTransform="matrix(0.4345,-0.9318,-0.9318,-0.4345,6223.4761,-5052.7427)"
       y2="2600.5515"
       x2="-7209.6543"
       y1="2600.5515"
       x1="-7584.0386"
       gradientUnits="userSpaceOnUse"
       id="linearGradient4385">
      <stop
         id="stop4387"
         style="stop-color:#9C2063"
         offset="0.3233" />
      <stop
         id="stop4389"
         style="stop-color:#C82037"
         offset="0.6302" />
      <stop
         id="stop4391"
         style="stop-color:#CC2135"
         offset="0.7514" />
      <stop
         id="stop4393"
         style="stop-color:#E87726"
         offset="1" />
    </linearGradient>
    <path
       style="fill:url(#linearGradient2128)"
       id="path3305"
       d="m 586.6,709.6 c 0.1,0 0.1,-0.1 0,0 v 0 0 0 c 0.1,-0.1 0.1,0 0,0 z"
       inkscape:connector-curvature="0" />
  </g>
  <path
     id="path3469-1"
     d="m 298.03353,94.829826 c -1.06172,-0.19052 -5.0692,-1.21723 -5.69605,-1.45937 -1.46974,-0.56755 -6.51743,-3.15307 -7.1101,-3.64185 -0.79235,-0.65349 -0.89408,-0.73215 -2.33728,-1.80761 -1.43003,-1.06562 -4.49739,-4.13313 -5.56245,-5.56264 -0.45541,-0.61129 -0.95305,-1.26346 -1.10589,-1.44911 -0.15278,-0.18569 -0.40904,-0.49835 -0.56942,-0.69469 -0.33666,-0.41213 -3.18162,-5.21951 -3.18162,-5.37623 0,-0.0575 -0.29601,-0.76473 -0.65774,-1.57156 -0.36174,-0.80688 -0.87514,-2.09218 -1.14082,-2.85626 -0.26572,-0.76412 -0.59052,-1.6394 -0.72183,-1.94502 -0.29386,-0.68419 -1.09623,-4.46382 -1.3861,-6.52961 -0.30661,-2.18487 -0.29718,-8.18031 0.0159,-10.14183 0.82483,-5.167 1.4755,-7.37512 3.36229,-11.4104 0.29053,-0.62128 0.52826,-1.27776 0.52826,-1.45872 0,-0.18101 0.12504,-0.32911 0.27782,-0.32911 0.15284,0 0.27787,-0.16146 0.27787,-0.35888 0,-0.19737 0.77205,-1.52881 1.71563,-2.95869 1.53054,-2.31923 5.01647,-6.17027 7.31474,-8.080779 2.37802,-1.9769 7.08188,-4.55361 9.89097,-5.4182 0.82563,-0.25405 1.81375,-0.57008 2.19579,-0.70214 1.41188,-0.48808 4.12492,-0.84307 7.64108,-0.9997 4.53204,-0.20192 9.28695,0.38972 12.64249,1.57315 2.50953,0.88503 4.80194,1.94371 4.9551,2.28829 0.051,0.11467 0.21411,0.20844 0.36258,0.20844 0.58597,0 3.74035,2.38974 5.63413,4.268419 2.19143,2.1739 3.62615,4.07804 4.76279,6.32113 0.71199,1.40499 0.72038,1.47353 0.22315,1.81652 -0.28414,0.19601 -0.6478,0.45442 -0.80805,0.57425 -0.16024,0.11983 -0.61724,0.40543 -1.0155,0.63468 -0.3983,0.22921 -1.3003,0.77341 -2.00442,1.20926 -1.43485,0.88827 -1.98187,0.82306 -2.40366,-0.28639 -1.17823,-3.09897 -6.58231,-8.18388 -10.26185,-9.65572 -4.05178,-1.620749 -6.50922,-2.104329 -10.67905,-2.101519 -4.41821,0.005 -7.25965,0.5458 -10.79128,2.061339 -1.20631,0.51766 -3.7802,2.0551 -4.32075,2.58087 -0.20191,0.19644 -0.45254,0.35715 -0.55685,0.35715 -0.29517,0 -3.38532,3.04969 -4.7447,4.68262 -1.47184,1.76795 -4.02824,6.3141 -4.63222,8.23769 -0.23994,0.76412 -0.54603,1.6394 -0.68016,1.94502 -1.18033,2.68913 -1.87568,9.20331 -1.44587,13.54553 0.29423,2.9721 0.91213,6.08419 1.44826,7.29378 0.13545,0.30562 0.32935,0.86829 0.43085,1.25033 0.44762,1.68492 3.06384,6.56008 4.43504,8.26427 1.36931,1.70194 3.86767,4.32909 5.00141,5.25931 1.29871,1.06553 5.51547,3.70149 5.92742,3.70524 0.10197,0 0.5082,0.17013 0.90275,0.37608 0.39451,0.20586 1.83241,0.67374 3.19535,1.03979 2.08337,0.55948 3.07538,0.66009 6.2291,0.63168 5.27689,-0.0475 8.62527,-0.95826 13.05927,-3.55189 2.90525,-1.69945 6.91812,-5.62283 8.33573,-8.14984 0.53487,-0.95347 1.09749,-1.73532 1.25033,-1.73742 0.58916,-0.008 5.97392,2.92175 5.97392,3.25043 0,0.38926 -1.61849,3.47796 -1.93555,3.69375 -0.11228,0.0764 -0.34814,0.41251 -0.52413,0.74692 -0.66333,1.26022 -3.70496,4.23452 -6.57068,6.42525 -1.5207,1.16257 -5.54599,3.20689 -8.33568,4.23345 -3.70659,1.36402 -5.9548,1.72988 -11.1143,1.80874 -2.75077,0.0422 -5.31402,0.0206 -5.69606,-0.0482 z m -221.729794,-0.3885 c 0,-0.1549 0.120626,-0.49868 0.268115,-0.76408 0.147443,-0.26535 0.529387,-1.10767 0.848744,-1.87175 0.31931,-0.76412 0.690705,-1.6394 0.825208,-1.94506 0.13455,-0.30562 1.008844,-2.36865 1.942864,-4.58459 0.934021,-2.21591 1.811784,-4.27902 1.950647,-4.58464 0.138816,-0.30567 0.576174,-1.36843 0.971901,-2.3618 0.395727,-0.99333 0.8321,-2.05618 0.969744,-2.3618 0.137645,-0.30562 0.516213,-1.18085 0.841243,-1.94493 0.325029,-0.76412 0.769466,-1.78332 0.987653,-2.26489 0.218186,-0.48156 0.396711,-0.95731 0.396711,-1.05717 0,-0.15767 0.532762,-1.43842 1.392007,-3.34655 0.137644,-0.30562 0.574065,-1.36842 0.969795,-2.36179 0.39572,-0.99338 0.833325,-2.05613 0.972465,-2.3618 0.13914,-0.30562 0.57678,-1.36843 0.97251,-2.3618 0.39573,-0.99333 0.83215,-2.05608 0.96979,-2.36175 0.1376,-0.30562 0.51396,-1.1809 0.83627,-1.94502 0.32236,-0.76408 0.69624,-1.63931 0.83089,-1.94497 0.13464,-0.30563 0.82206,-1.93115 1.52758,-3.61213 0.70552,-1.68103 1.39501,-3.30651 1.53223,-3.61218 0.13718,-0.30562 0.76206,-1.80606 1.38859,-3.33426 0.62657,-1.52824 1.25098,-3.02864 1.38755,-3.33426 0.13661,-0.30567 0.68573,-1.61858 1.220227,-2.91758 2.99451,-7.27723 3.68072,-8.92282 4.34503,-10.419559 0.13563,-0.30567 0.57275,-1.36847 0.97138,-2.3618 0.39864,-0.99337 0.9675,-2.33751 1.26421,-2.98696 l 0.53947,-1.18094 h 3.02076 3.02081 l 0.62113,1.45876 c 0.77271,1.81464 1.62225,3.78381 1.94803,4.51521 0.94583,2.123639 1.38924,3.187849 1.38924,3.334259 0,0.15532 0.53309,1.41352 1.54831,3.65413 0.21818,0.48157 0.39671,0.95732 0.39671,1.05723 0,0.157 0.42967,1.19201 1.38928,3.3465 0.94589,2.12368 1.38929,3.18785 1.38929,3.33426 0,0.0933 0.25912,0.75648 0.5758,1.474 0.31669,0.71752 0.76276,1.74221 0.99126,2.27713 0.22855,0.53482 0.52648,1.22248 0.66216,1.5282 0.13563,0.30562 0.57041,1.36842 0.96613,2.36179 0.39573,0.99333 0.83112,2.05613 0.96754,2.36175 0.13643,0.30567 1.01386,2.36879 1.94995,4.58464 0.93608,2.21595 1.81356,4.27902 1.94994,4.58464 0.13643,0.30567 0.45166,1.05591 0.7006,1.66715 2.55514,6.27505 3.5697,8.74191 3.8853,9.44715 0.20521,0.4585 0.88789,2.08388 1.51714,3.61217 0.62924,1.5282 1.256,3.02864 1.39285,3.33426 0.13685,0.30562 0.51255,1.18085 0.83486,1.94497 0.32236,0.76413 0.69868,1.6394 0.83632,1.94502 0.13765,0.30563 0.57402,1.36843 0.9698,2.36176 0.39572,0.99337 0.83238,2.05617 0.97035,2.36179 1.34587,2.98148 3.05855,7.18872 3.05855,7.51338 0,0.33675 -0.68025,0.40552 -4.0102,0.40552 -3.91695,0 -4.01465,-0.0145 -4.20096,-0.62512 -0.17046,-0.55873 -0.81663,-2.12734 -1.51657,-3.68165 -0.13764,-0.30562 -0.57622,-1.36842 -0.97467,-2.36175 -0.67908,-1.69303 -1.22848,-3.00215 -1.80751,-4.30677 -0.13563,-0.30567 -0.57041,-1.36847 -0.96614,-2.36185 -0.39573,-0.99332 -0.83215,-2.05608 -0.96979,-2.36175 -0.8427,-1.87141 -1.39201,-3.1871 -1.39201,-3.3343 0,-0.0932 -0.23234,-0.69395 -0.51626,-1.33505 -0.28396,-0.6411 -0.68958,-1.57203 -0.90139,-2.06865 l -0.38513,-0.90308 H 110.30757 93.877143 l -0.56047,1.31986 c -0.30825,0.72591 -0.90252,2.19509 -1.32056,3.26478 -0.41809,1.06979 -0.99398,2.46958 -1.27982,3.11064 -0.28584,0.6411 -0.51973,1.24189 -0.51973,1.33509 0,0.14721 -0.54926,1.46289 -1.392005,3.33431 -0.13765,0.30562 -0.57407,1.36838 -0.969795,2.36175 -0.395727,0.99337 -0.835897,2.05618 -0.978136,2.3618 -0.142285,0.30562 -0.710442,1.68103 -1.26266,3.05644 -0.552171,1.37536 -1.068758,2.65696 -1.147941,2.848 -0.182791,0.44121 -8.14229,0.50534 -8.14229,0.0657 z M 124.9287,65.254856 c 0,-0.26512 -0.40961,-1.26458 -1.54831,-3.77776 -0.21819,-0.48157 -0.39671,-0.96285 -0.39671,-1.06946 0,-0.10666 -0.18167,-0.58785 -0.40365,-1.06942 -0.22204,-0.48156 -1.0998,-2.62611 -1.95051,-4.76555 -0.85076,-2.13949 -1.66265,-4.14006 -1.80424,-4.44573 -0.14163,-0.30567 -0.83214,-2.05613 -1.53457,-3.88999 -0.70243,-1.83392 -1.38835,-3.58438 -1.52435,-3.89005 -0.13596,-0.30566 -0.43422,-0.99332 -0.66272,-1.52819 -0.22855,-0.53487 -0.67462,-1.55956 -0.99131,-2.27709 -0.31668,-0.71747 -0.57655,-1.40518 -0.57749,-1.52819 0,-0.12302 -0.16314,-0.53623 -0.36042,-0.91827 -0.19728,-0.38209 -0.65948,-1.50738 -1.02718,-2.50076 -0.36764,-0.99332 -0.82989,-2.11862 -1.02717,-2.50066 -0.19728,-0.38208 -0.35944,-0.85094 -0.36038,-1.04199 -0.005,-0.58419 -0.50833,-0.38602 -0.70852,0.27787 -0.10375,0.34383 -0.35377,1.00031 -0.55569,1.45872 -0.20191,0.4585 -0.88212,2.08393 -1.5116,3.61217 -0.62943,1.5282 -1.50818,3.65381 -1.95275,4.7236 -0.44458,1.0697 -2.80478,6.75886 -5.24497,12.64249 -2.440127,5.88359 -4.634887,11.16639 -4.877217,11.73947 l -0.44055,1.04199 h 14.730127 c 10.14563,0 14.73018,-0.0913 14.73018,-0.2932 z m 27.22996,-7.76471 V 20.257267 l 15.49055,0.005 c 16.17863,0.005 19.10853,0.15353 21.70277,1.12046 1.83091,0.68246 4.6687,2.0889 5.18763,2.57099 0.19854,0.18443 0.77818,0.6456 1.28807,1.02473 3.58489,2.66587 7.00935,7.988479 8.31603,12.925619 1.2651,4.78036 0.74762,11.28836 -1.25825,15.82401 -2.87918,6.51044 -7.72528,11.01646 -13.84295,12.87156 -1.22656,0.37196 -3.66604,0.45831 -15.41942,0.5464 l -13.96231,0.10464 v 13.73755 13.7376 h -3.75104 -3.75108 v -37.2328 z m 32.97539,2.75575 c 5.12532,-0.70899 9.27949,-4.61427 11.35499,-10.67469 0.714,-2.08497 0.87654,-7.84014 0.28668,-10.15285 -0.80149,-3.14243 -2.27029,-5.75166 -4.45136,-7.90784 -1.08207,-1.06979 -2.34098,-2.13241 -2.79747,-2.36138 -0.45653,-0.22897 -0.89257,-0.48372 -0.96899,-0.56604 -0.0764,-0.0824 -0.70158,-0.39212 -1.38924,-0.68822 -1.16758,-0.502809 -2.11975,-0.544299 -14.37913,-0.627469 l -13.12875,-0.0891 v 16.684109 16.6841 h 11.64992 c 6.8313,0 12.54887,-0.12433 13.82335,-0.30065 z m 15.56073,34.26865 c -0.0669,-0.11457 0.35747,-1.33368 0.94307,-2.70905 0.58564,-1.37541 2.14379,-5.12649 3.46257,-8.33577 1.31878,-3.20922 2.56653,-6.21006 2.77281,-6.66852 0.20623,-0.4585 0.89201,-2.08393 1.52398,-3.61217 1.10659,-2.67614 1.70714,-4.09937 2.22776,-5.27928 0.13483,-0.30562 0.76,-1.80602 1.38924,-3.33426 0.62925,-1.5282 1.30926,-3.15367 1.51118,-3.61213 0.20192,-0.45845 1.01142,-2.39654 1.79889,-4.30677 0.78747,-1.91028 1.79374,-4.3485 2.23611,-5.41824 0.94307,-2.28046 4.09702,-9.75253 4.45675,-10.55856 0.13642,-0.30567 0.57181,-1.36848 0.96754,-2.3618 0.39572,-0.99337 0.8321,-2.05613 0.96979,-2.36175 0.1376,-0.30572 0.51616,-1.18095 0.84119,-1.94507 0.32503,-0.76407 0.76947,-1.78323 0.98766,-2.26485 0.21818,-0.48152 0.39671,-0.95722 0.39671,-1.05717 0,-0.15701 0.42967,-1.19201 1.38929,-3.346499 0.55188,-1.23913 1.3447,-3.14824 1.96161,-4.72355 0.35902,-0.91696 0.76759,-1.82346 0.90786,-2.01445 0.17661,-0.2406 1.17396,-0.34739 3.24369,-0.34739 h 2.9887 l 0.36258,0.90307 c 0.72877,1.81502 3.92018,9.390979 4.71117,11.183729 0.13483,0.30567 0.75784,1.80607 1.38436,3.33426 0.62653,1.5282 1.25423,3.02869 1.39478,3.33431 0.14059,0.30562 1.20274,2.86887 2.36025,5.69611 1.15755,2.82719 2.21702,5.39044 2.35434,5.69606 0.13736,0.30562 0.89984,2.11862 1.69444,4.0289 1.87803,4.51516 3.82994,9.16192 4.14344,9.86392 0.13647,0.30567 0.51185,1.1809 0.83416,1.94502 0.32236,0.76408 0.69867,1.63936 0.83632,1.94498 0.13764,0.30566 0.57622,1.36847 0.97471,2.36179 0.67908,1.69303 1.22849,3.00211 1.80747,4.30682 0.13568,0.30562 0.57261,1.36842 0.97106,2.3617 0.39845,0.99338 0.9042,2.20011 1.12384,2.68167 0.21974,0.48152 0.39948,0.9615 0.39948,1.06651 0,0.10497 0.3751,1.0013 0.83355,1.99186 0.45846,0.99046 0.83361,1.8671 0.83361,1.94792 0,0.0808 0.17974,0.54102 0.39943,1.02258 0.21968,0.48157 0.72544,1.6883 1.12384,2.68163 0.39845,0.99337 0.83702,2.05613 0.97471,2.36184 0.96239,2.13714 1.39201,3.20431 1.39201,3.45794 0,0.44664 -7.63025,0.39488 -7.99072,-0.0542 -0.15335,-0.19104 -1.37152,-3.03557 -2.70708,-6.32122 -1.33552,-3.28564 -2.59293,-6.34902 -2.79428,-6.80753 -0.20136,-0.45845 -0.69211,-1.64624 -1.09051,-2.63961 -0.39845,-0.99333 -0.83703,-2.05613 -0.97472,-2.3618 -0.37674,-0.8367 -1.25844,-2.94013 -1.66054,-3.96163 l -0.35635,-0.90519 -16.53014,0.0716 -16.53005,0.0716 -1.64517,4.02895 c -0.90481,2.2159 -1.76561,4.31835 -1.91281,4.67217 -0.14717,0.35381 -0.2676,0.70449 -0.2676,0.77931 0,0.11889 -0.60323,1.54934 -1.39201,3.30098 -0.13764,0.30566 -0.57627,1.36847 -0.97471,2.36179 -0.3984,0.99333 -0.8885,2.18112 -1.08901,2.63962 -0.20056,0.4585 -0.77997,1.86509 -1.2877,3.12587 l -0.92305,2.29232 h -3.81892 c -2.10044,0 -3.87368,-0.0937 -3.94058,-0.20839 z m 48.43593,-29.11384 c 0,-0.13708 -0.95681,-2.51848 -1.78281,-4.43734 -0.19733,-0.45845 -0.65255,-1.64629 -1.01152,-2.63962 -0.35902,-0.99337 -0.81414,-2.11867 -1.01142,-2.50075 -0.19728,-0.38204 -0.35944,-0.79525 -0.36038,-0.91832 -0.005,-0.19362 -0.49127,-1.38445 -1.39374,-3.38845 -0.13764,-0.30562 -0.57622,-1.36847 -0.97467,-2.36175 -0.39839,-0.99338 -0.88831,-2.18121 -1.08863,-2.63971 -0.20033,-0.45846 -0.59404,-1.45877 -0.8749,-2.22285 -0.28092,-0.76412 -0.67111,-1.70184 -0.86713,-2.08393 -0.19596,-0.38203 -0.35714,-0.80078 -0.35808,-0.9305 0,-0.12972 -0.18246,-0.62985 -0.40332,-1.11142 -0.2209,-0.48157 -0.86145,-2.06344 -1.42342,-3.51522 -0.56196,-1.45179 -1.2387,-3.13975 -1.50391,-3.75104 -0.26516,-0.61134 -0.65559,-1.51798 -0.86749,-2.01497 -0.48073,-1.12713 -0.79582,-1.03693 -1.26923,0.36347 -0.2037,0.60266 -0.48836,1.34583 -0.63252,1.6515 -0.14421,0.30562 -0.52587,1.18085 -0.84823,1.94497 -0.32236,0.76408 -0.69891,1.63935 -0.83688,1.94502 -0.22592,0.50056 -3.24894,7.72594 -6.97513,16.67145 -0.76389,1.83382 -1.50054,3.58437 -1.63706,3.88999 -0.13651,0.30562 -0.75868,1.80607 -1.38263,3.33431 -0.62394,1.5282 -1.31788,3.18912 -1.54207,3.69098 -0.22419,0.50187 -0.40763,0.97073 -0.40763,1.04199 0,0.0712 6.62689,0.12954 14.72642,0.12954 8.09949,0 14.72638,-0.0664 14.72638,-0.14735 z m 93.21351,28.98328 c -0.0745,-0.19559 -0.10323,-16.92287 -0.0639,-37.1717 l 0.0714,-36.816069 h 3.61213 3.61217 l 0.0716,16.463009 0.0717,16.46306 h 21.80957 21.80957 V 36.789796 20.257267 h 3.75108 3.75104 v 37.232879 37.23279 h -3.75104 -3.75108 v -17.36604 -17.36604 h -21.80964 -21.80971 l -0.0715,17.29656 -0.0716,17.29661 -3.54822,0.0778 c -2.68482,0.0588 -3.58114,-0.008 -3.68358,-0.27787 z m 74.88996,-36.89384 V 20.257267 h 24.45137 24.45148 v 3.47326 3.47317 h -20.7004 -20.70035 v 13.059269 13.05932 h 18.06074 18.06064 v 3.33431 3.33426 h -18.06064 -18.06074 v 13.89287 13.89282 h 21.11718 21.11708 v 3.47322 3.47317 h -24.86817 -24.86819 z"
     style="fill:#aa0000;stroke-width:0.468815"
     inkscape:connector-curvature="0" />
  <g
     id="g2286"
     transform="matrix(0.76062487,0,0,0.76062487,0.80308707,-131.99768)">
    <path
       d="m 14.2519,253.5508 h 19.687501 l 1.406251,-16.87617 -18.282424,-4.21758 z"
       fill="#4c4c4c"
       id="path2"
       style="stroke-width:0.9375" />
    <path
       d="m 17.767525,229.64338 17.578127,4.21875 4.21875,-14.76563 -14.765626,-7.7332 z"
       fill="#4c4c4c"
       id="path4"
       style="stroke-width:0.9375" />
    <path
       d="M 26.203854,208.54963 40.266355,216.284 51.517528,208.54963 40.970652,196.5965 Z"
       fill="#4c4c4c"
       id="path6"
       style="stroke-width:0.9375" />
    <path
       d="M 104.95386,253.5508 H 85.267527 l -1.407422,-16.87617 18.282425,-4.21758 z"
       fill="#4c4c4c"
       id="path8"
       style="stroke-width:0.9375" />
    <path
       d="m 101.43823,229.64338 -17.578125,4.21875 -4.217578,-14.76563 14.764454,-7.7332 z"
       fill="#4c4c4c"
       id="path10"
       style="stroke-width:0.9375" />
    <path
       d="M 93.000731,208.54963 78.93823,216.284 67.689401,208.54963 78.236276,196.5965 Z"
       fill="#4c4c4c"
       id="path12"
       style="stroke-width:0.9375" />
    <path
       d="m 44.486277,194.48713 10.546873,12.65625 h 9.842579 l 9.141797,-12.65625 -9.141797,-2.8125 H 54.785884 Z"
       fill="#4c4c4c"
       id="path14"
       style="stroke-width:0.9375" />
    <path
       d="m 14.2519,253.5508 h 19.687501 l 1.406251,-16.87617 -18.282424,-4.21758 z"
       fill="#9c0000"
       id="path16"
       style="stroke-width:0.9375" />
    <path
       d="m 17.767525,229.64338 17.578127,4.21875 4.21875,-14.76563 -14.765626,-7.7332 z"
       fill="#b50808"
       id="path18"
       style="stroke-width:0.9375" />
    <path
       d="M 26.203854,208.54963 40.266355,216.284 51.517528,208.54963 40.970652,196.5965 Z"
       fill="#c61818"
       id="path20"
       style="stroke-width:0.9375" />
    <path
       d="M 104.95386,253.5508 H 85.267527 l -1.407422,-16.87617 18.282425,-4.21758 z"
       fill="#9c0000"
       id="path22"
       style="stroke-width:0.9375" />
    <path
       d="m 101.43823,229.64338 -17.578125,4.21875 -4.217578,-14.76563 14.764454,-7.7332 z"
       fill="#b50808"
       id="path24"
       style="stroke-width:0.9375" />
    <path
       d="M 93.000731,208.54963 78.93823,216.284 67.689401,208.54963 78.236276,196.5965 Z"
       fill="#c61818"
       id="path26"
       style="stroke-width:0.9375" />
    <path
       d="m 44.486277,194.48713 10.546873,12.65625 h 9.842579 l 9.141797,-12.65625 -9.141797,-2.8125 H 54.785884 Z"
       fill="#ce3129"
       id="path28"
       style="stroke-width:0.9375" />
  </g>
  <g
     id="g2270"
     transform="translate(-74.943968,-102.98235)">
    <path
       d="m 128.97847,209.22346 v 44.29688 h 7.64648 v -15.82032 l 14.41407,15.82032 h 6.88476 v -3.10547 l -12.56836,-13.06641 c 3.27533,-0.41452 5.85938,-2.00245 7.76368,-4.74609 1.90424,-2.7436 2.88864,-5.84328 2.92968,-9.31641 0.0615,-4.03116 -1.23932,-7.36523 -3.86718,-9.99023 -2.62793,-2.62493 -6.95225,-3.97848 -13.00782,-4.07227 z m 35.36133,0 v 44.29688 h 24.60938 v -6.97266 h -16.96289 v -12.65625 h 12.45117 v -6.88477 h -12.45117 v -10.95703 h 16.25976 v -6.82617 z m 31.99219,0 v 44.29688 h 12.65625 c 4.15183,-0.0695 7.49784,-1.15976 10.01953,-3.28125 2.52164,-2.1215 4.34742,-4.86288 5.47852,-8.20313 1.13103,-3.34022 1.66055,-6.87981 1.64062,-10.60547 0.0317,-3.68308 -0.43342,-7.18144 -1.43554,-10.54687 -1.0022,-3.36538 -2.71078,-6.12869 -5.12696,-8.29102 -2.41623,-2.16226 -5.75051,-3.29531 -9.96093,-3.36914 z m -59.70704,6.62109 h 2.54883 c 3.17719,0.022 5.46826,0.66657 6.91407,1.96289 1.44575,1.29642 2.16061,3.11285 2.13867,5.41993 -0.005,2.39355 -0.62553,4.42095 -1.9043,6.09375 -1.27881,1.67285 -3.18315,2.53419 -5.68359,2.60742 -0.9668,-0.0381 -1.86917,-0.17283 -2.69532,-0.43945 -0.82617,-0.26658 -1.26564,-0.43064 -1.31836,-0.46875 z m 67.29493,0 h 5.41992 c 2.67964,0.0812 4.67188,0.98986 5.97657,2.72461 1.30464,1.73483 2.15036,3.7965 2.54882,6.21094 0.3984,2.41449 0.56639,4.6767 0.52735,6.79688 0.0347,2.18141 -0.16041,4.45403 -0.61524,6.79687 -0.45488,2.34286 -1.36354,4.33684 -2.72461,5.97656 -1.36111,1.63975 -3.38048,2.4768 -6.06445,2.54883 h -5.06836 z"
       fill="#9c0000"
       id="path30"
       style="stroke-width:0.9375" />
    <path
       d="m 235.20895,209.22346 v 44.29688 h 7.67578 v -24.4043 l -0.58594,-5.12695 10.2832,29.53125 h 6.32813 l 10.25391,-29.53125 -0.55664,5.12695 v 24.4043 h 7.67578 v -44.29688 h -9.02344 l -10.54688,30.0293 c -0.34865,1.05616 -0.57717,1.95852 -0.73242,2.72461 -0.1553,0.76611 -0.23734,1.16456 -0.23437,1.20117 0.003,-0.0323 -0.0792,-0.41895 -0.23438,-1.17188 -0.1553,-0.75291 -0.41312,-1.66698 -0.76172,-2.7539 l -10.54687,-30.0293 z m 51.18164,0 v 44.29688 h 7.58789 v -44.29688 z m 17.37305,0 v 44.29688 h 7.67578 v -25.16602 c -0.0205,-1.53511 -0.12013,-2.89452 -0.26367,-4.04297 -0.14357,-1.1484 -0.21388,-1.72849 -0.23438,-1.78711 l 13.97461,30.9961 h 7.38282 v -44.29688 h -7.64649 c -3e-5,6.98487 -3e-5,12.20791 0,15.67383 -3e-5,3.46598 -3e-5,5.88963 0,7.23633 -3e-5,1.34673 -3e-5,2.33187 0,2.95898 -3e-5,0.62715 -3e-5,1.59324 0,2.90039 -0.0147,-0.10837 -0.23147,-0.86425 -0.61523,-2.25586 -0.38381,-1.39156 -0.85844,-2.78613 -1.43555,-4.16015 l -9.84375,-22.35352 z m 38.81836,0 v 44.29688 h 24.60938 v -6.97266 h -16.9629 v -12.65625 h 12.45118 v -6.88477 h -12.45118 v -10.95703 h 16.25977 v -6.82617 z"
       fill="#ce3129"
       id="path32"
       style="stroke-width:0.9375" />
  </g>
  <text
     xml:space="preserve"
     style="font-size:37.5px;line-height:1.25;font-family:'Quicksand Medium';-inkscape-font-specification:'Quicksand Medium, ';letter-spacing:0px;word-spacing:0px;mix-blend-mode:screen;fill:#aa0000;stroke-width:32.8441;stroke-miterlimit:4;stroke-dasharray:none;paint-order:markers fill stroke;filter:url(#filter2324);image-rendering:auto"
     x="317.3938"
     y="158.96422"
     id="text2290"
     transform="matrix(2.0680945,0,0,1.8560985,-347.88461,-148.60039)"><tspan
       sodipodi:role="line"
       id="tspan2288"
       x="317.3938"
       y="158.96422"
       style="font-style:normal;font-variant:normal;font-weight:normal;font-stretch:normal;font-family:progenisis;-inkscape-font-specification:progenisis;fill:#aa0000;stroke-width:32.8441;stroke-miterlimit:4;stroke-dasharray:none;paint-order:markers fill stroke">AUTH  </tspan></text>
</svg>
